fd_11_states
version=1
nRows=19
nColumns=17
inDegrees=yes

# SIMM Motion File Header:
name fd_11_states
datacolumns 17
datarows 19
otherdata 1
range 0.438132 0.449957
endheader
time	/jointset/r_shoulder/r_shoulder_elev/value	/jointset/r_shoulder/r_shoulder_elev/speed	/jointset/r_elbow/r_elbow_flex/value	/jointset/r_elbow/r_elbow_flex/speed	/forceset/TRIlong/activation	/forceset/TRIlong/fiber_length	/forceset/TRIlat/activation	/forceset/TRIlat/fiber_length	/forceset/TRImed/activation	/forceset/TRImed/fiber_length	/forceset/BIClong/activation	/forceset/BIClong/fiber_length	/forceset/BICshort/activation	/forceset/BICshort/fiber_length	/forceset/BRA/activation	/forceset/BRA/fiber_length
      0.438132	    -12.029004	    -29.596942	    138.177356	    226.371716	      0.025196	      0.178005	      0.213813	      0.119215	      0.211839	      0.114261	      0.997820	      0.061631	      0.751072	      0.059502	      0.154013	      0.049014
      0.439240	    -12.061238	    -28.565477	    138.428417	    226.702433	      0.025436	      0.178065	      0.209472	      0.119309	      0.207558	      0.114355	      0.997938	      0.061495	      0.767349	      0.059327	      0.161485	      0.048900
      0.439672	    -12.073486	    -28.159490	    138.526362	    226.889949	      0.025517	      0.178088	      0.207817	      0.119346	      0.205924	      0.114391	      0.997982	      0.061442	      0.773340	      0.059260	      0.164080	      0.048856
      0.439859	    -12.078753	    -27.982489	    138.568935	    226.981078	      0.025551	      0.178098	      0.207103	      0.119362	      0.205221	      0.114407	      0.998001	      0.061419	      0.775884	      0.059230	      0.165158	      0.048838
      0.439983	    -12.082205	    -27.865600	    138.597005	    227.044289	      0.025572	      0.178105	      0.206635	      0.119373	      0.204759	      0.114417	      0.998013	      0.061404	      0.777542	      0.059211	      0.165852	      0.048826
      0.440007	    -12.082875	    -27.842836	    138.602467	    227.056875	      0.025575	      0.178106	      0.206595	      0.119375	      0.204720	      0.114419	      0.998016	      0.061401	      0.777717	      0.059208	      0.165955	      0.048823
      0.440031	    -12.083545	    -27.820066	    138.607930	    227.069553	      0.025573	      0.178108	      0.206976	      0.119377	      0.205100	      0.114421	      0.998018	      0.061398	      0.776991	      0.059204	      0.165893	      0.048821
      0.440055	    -12.084214	    -27.797288	    138.613392	    227.082313	      0.025571	      0.178109	      0.207388	      0.119379	      0.205511	      0.114423	      0.998020	      0.061395	      0.776234	      0.059200	      0.165827	      0.048818
      0.440176	    -12.087551	    -27.683261	    138.640711	    227.146991	      0.025562	      0.178115	      0.209427	      0.119388	      0.207544	      0.114433	      0.998032	      0.061380	      0.772465	      0.059182	      0.165499	      0.048807
      0.440777	    -12.104028	    -27.108420	    138.777419	    227.464987	      0.025518	      0.178149	      0.219078	      0.119428	      0.217166	      0.114472	      0.998091	      0.061307	      0.754084	      0.059095	      0.163874	      0.048750
      0.442212	    -12.141928	    -25.698653	    139.104264	    227.905489	      0.025412	      0.178230	      0.238949	      0.119501	      0.236968	      0.114546	      0.998223	      0.061133	      0.713131	      0.058916	      0.160089	      0.048623
      0.443612	    -12.176906	    -24.280087	    139.423130	    227.636498	      0.025311	      0.178312	      0.254865	      0.119568	      0.252821	      0.114614	      0.998343	      0.060964	      0.676726	      0.058767	      0.156521	      0.048507
      0.444632	    -12.201153	    -23.225370	    139.655174	    226.952781	      0.025239	      0.178369	      0.264757	      0.119617	      0.262669	      0.114665	      0.998426	      0.060842	      0.652120	      0.058669	      0.153991	      0.048425
      0.445653	    -12.224318	    -22.163393	    139.886309	    225.856261	      0.025167	      0.178430	      0.273448	      0.119669	      0.271318	      0.114718	      0.998504	      0.060720	      0.628992	      0.058577	      0.151521	      0.048345
      0.446674	    -12.246397	    -21.095829	    140.116123	    224.369038	      0.025097	      0.178489	      0.281113	      0.119722	      0.278943	      0.114773	      0.998579	      0.060599	      0.607215	      0.058490	      0.149109	      0.048267
      0.447695	    -12.267386	    -20.029806	    140.344228	    222.512913	      0.025027	      0.178550	      0.287894	      0.119777	      0.285686	      0.114829	      0.998650	      0.060479	      0.586675	      0.058407	      0.146752	      0.048189
      0.448715	    -12.287287	    -18.965630	    140.570264	    220.319272	      0.024959	      0.178609	      0.293909	      0.119833	      0.291665	      0.114887	      0.998717	      0.060360	      0.567271	      0.058326	      0.144450	      0.048113
      0.449736	    -12.306106	    -17.908816	    140.793899	    217.813739	      0.024891	      0.178670	      0.299257	      0.119891	      0.296980	      0.114947	      0.998781	      0.060242	      0.548914	      0.058248	      0.142200	      0.048037
      0.449957	    -12.310028	    -17.681207	    140.841838	    217.235262	      0.024877	      0.178683	      0.300333	      0.119904	      0.298048	      0.114960	      0.998794	      0.060216	      0.545080	      0.058231	      0.141721	      0.048021
